<?xml version="1.0" encoding="utf-8"?>
<!-- Generator: Adobe Illustrator 19.0.0, SVG Export Plug-In . SVG Version: 6.00 Build 0)  -->
<svg version="1.1" id="Layer_1" xmlns="http://www.w3.org/2000/svg" xmlns:xlink="http://www.w3.org/1999/xlink" x="0px" y="0px"
	 viewBox="0 0 512 512" style="enable-background:new 0 0 512 512;" xml:space="preserve">
<g id="XMLID_1_">
	<path id="XMLID_6_" d="M421.5,36.3H348C348,15.8,331.4,0,311.7,0H201.1c-20.5,0-36.3,16.6-36.3,36.3H91.2
		c-20.5,0-36.3,16.6-36.3,36.3V109c0,20.5,16.6,36.3,36.3,36.3v330.3c0,20.5,16.6,36.3,36.3,36.3h256.8c20.5,0,36.3-16.6,36.3-36.3
		V147c20.5,0,36.3-16.6,36.3-36.3V74.3C457.9,52.9,441.3,36.3,421.5,36.3z M385.2,477.2H128.4V147h36.3v293.1h36.3V147h36.3v293.1
		h36.3V147h37.9v293.1H348V147h36.3v330.3H385.2z M421.5,109.8H91.2V73.5h330.3V109.8z"/>
</g>
</svg>
