<?xml version="1.0" encoding="utf-8"?>
<!-- Generator: Adobe Illustrator 24.1.1, SVG Export Plug-In . SVG Version: 6.00 Build 0)  -->
<svg version="1.1" id="Layer_1" xmlns="http://www.w3.org/2000/svg" xmlns:xlink="http://www.w3.org/1999/xlink" x="0px" y="0px"
	 viewBox="0 0 512 512" style="enable-background:new 0 0 512 512;" xml:space="preserve">
<g>
	<path d="M470.5,411.2c11.9,11.9,17.8,26,17.8,42.5s-5.9,30.6-17.8,42.5c-11.9,10.5-26,15.8-42.5,15.8s-30.6-5.3-42.5-15.8
		L255,345.9L124.5,496.2C112.7,506.7,98.5,512,82,512s-30.6-5.3-42.5-15.8c-10.5-11.9-15.8-26-15.8-42.5S29,423,39.5,411.2
		L175.9,257L39.5,100.8C29,89,23.7,74.8,23.7,58.3S29,27.7,39.5,15.8C51.4,5.3,65.6,0,82,0s30.6,5.3,42.5,15.8L255,166.1L385.5,15.8
		C397.3,5.3,411.5,0,428,0s30.6,5.3,42.5,15.8c11.9,11.9,17.8,26,17.8,42.5s-5.9,30.6-17.8,42.5L334.1,257L470.5,411.2"/>
</g>
</svg>
